<?xml version="1.0" encoding="UTF-8" standalone="no"?>
<svg
   xmlns:dc="http://purl.org/dc/elements/1.1/"
   xmlns:cc="http://creativecommons.org/ns#"
   xmlns:rdf="http://www.w3.org/1999/02/22-rdf-syntax-ns#"
   xmlns:svg="http://www.w3.org/2000/svg"
   xmlns="http://www.w3.org/2000/svg"
   xmlns:sodipodi="http://sodipodi.sourceforge.net/DTD/sodipodi-0.dtd"
   xmlns:inkscape="http://www.inkscape.org/namespaces/inkscape"
   width="500"
   height="500"
   viewBox="0 0 132.29166 132.29167"
   version="1.1"
   id="svg91"
   inkscape:version="1.0.1 (3bc2e813f5, 2020-09-07)"
   sodipodi:docname="logo.svg">
  <defs
     id="defs85" />
  <sodipodi:namedview
     id="base"
     pagecolor="#ffffff"
     bordercolor="#666666"
     borderopacity="1.0"
     inkscape:pageopacity="0.0"
     inkscape:pageshadow="2"
     inkscape:zoom="1"
     inkscape:cx="303.74369"
     inkscape:cy="279.35189"
     inkscape:document-units="mm"
     inkscape:current-layer="layer1"
     inkscape:document-rotation="0"
     showgrid="false"
     units="px"
     inkscape:window-width="1920"
     inkscape:window-height="1022"
     inkscape:window-x="0"
     inkscape:window-y="26"
     inkscape:window-maximized="1" />
  <metadata
     id="metadata88">
    <rdf:RDF>
      <cc:Work
         rdf:about="">
        <dc:format>image/svg+xml</dc:format>
        <dc:type
           rdf:resource="http://purl.org/dc/dcmitype/StillImage" />
        <dc:title></dc:title>
      </cc:Work>
    </rdf:RDF>
  </metadata>
  <g
     inkscape:label="Layer 1"
     inkscape:groupmode="layer"
     id="layer1">
    <g
       inkscape:label="Layer 1"
       id="layer1-5"
       transform="matrix(0.2204884,0,0,0.22048774,2.9470039e-4,4.9129971e-4)">
      <path
         style="color:#000000;display:inline;overflow:visible;visibility:visible;fill:#000000;fill-opacity:1;fill-rule:nonzero;stroke:none;stroke-width:0.873544;stroke-linecap:butt;stroke-linejoin:miter;stroke-miterlimit:4;stroke-dashoffset:0;stroke-opacity:1;marker:none;marker-start:none;marker-mid:none;marker-end:none"
         d="m 37.5,0 h 525 C 583.275,0 600,16.725 600,37.5 v 525 c 0,20.775 -16.725,37.5 -37.5,37.5 H 37.5 C 16.725,600 0,583.275 0,562.5 V 37.5 C 0,16.725 16.725,0 37.5,0 Z"
         id="rect1872" />
      <path
         style="fill:#ffffff;fill-opacity:1"
         d="M 91.759702,534.5492 V 494.0985 H 63.492111 35.22451 V 344.2866 194.4747 L 24.23832,112.18397 C 18.19591,66.92406 13.082893,28.79226 12.876055,27.44662 L 12.5,25 h 257.9006 257.90062 l 3.3158,1.55127 c 5.28666,2.47333 7.69764,5.61254 9.27528,12.07704 1.17355,4.80871 1.25012,5.99642 0.63112,9.78647 -0.38745,2.37247 -1.0746,7.10272 -1.52695,10.51167 -0.65122,4.90772 -1.45478,7.62433 -3.85966,13.04864 -2.8865,6.51046 -3.04806,7.1744 -3.25529,13.37485 l -0.21804,4.52432 2.49138,3.79418 2.49138,1.79419 h 24.86933 24.86933 v 15.83635 15.83635 l 0.1151,1.08302 c -1.57714,4.25405 -1.88451,6.01356 -1.88451,10.78884 l -3.9992,11.7058 -6.59117,16.55573 c -7.6315,16.4838 -8.6426,19.06566 -9.05544,23.12273 -0.63099,6.2018 -5.15576,26.67259 -7.53783,34.10224 -1.06639,3.32623 -3.03123,10.34011 -4.36628,15.58641 -2.51889,9.8983 -2.18892,11.2028 -9.55162,22.1338 -1.75963,2.6124 -5.59147,8.3705 -5.60567,11.3324 -0.004,0.857 -1.65351,6.7841 -6.1093,15.6157 -4.4686,8.857 -8.48041,17.6665 -8.94651,19.6458 -0.99056,4.2063 -16.80923,33.215 -28.81781,52.847 -6.84051,11.1831 -8.71578,14.9224 -15.49881,30.9051 -4.84758,11.4223 -8.06431,19.9124 -8.65177,22.8351 -0.51428,2.5588 -1.36036,6.5608 -1.88011,8.8933 -0.71617,3.214 -0.9481,8.5496 -0.95802,22.0375 l -0.0131,15.7967 2.16919,8.6695 c 1.19309,3.6682 2.76677,9.1443 3.49708,12.1691 0.73038,3.0248 1.74574,8.3387 2.25638,9.3643 0.78911,1.585 0.90061,4.5425 0.74306,31.0294 l -0.18543,29.1646 -2.08853,6.2724 c -1.1488,2.3498 -3.33947,5.7575 -4.86838,7.5727 -1.52883,1.8152 -2.77971,3.4941 -2.77971,3.731 0,0.6043 -1.68851,2.2918 -2.31072,2.3093 -0.2838,0.008 -1.22272,0.5886 -2.08646,1.2903 -1.55026,1.2595 -3.93428,1.2761 -186.09502,1.2904 L 91.759702,575 Z"
         id="path3797"
         sodipodi:nodetypes="ccccccccccccssssccccccccccccssssssssssscccsscccssssccc" />
    </g>
    <path
       d="M 125.14581,1.2576041 C 105.2909,5.4688172 89.001795,13.452555 73.330615,26.656445 66.735954,32.212901 60.090644,38.968375 52.158814,48.180388 40.134451,62.144635 38.564291,63.884686 34.431237,67.818058 25.537052,76.255093 16.38962,81.182795 4.4159046,83.961023 l -1.7626289,0.409423 0.060755,0.424044 c 0.030373,0.219335 0.060747,0.555647 0.060747,0.731114 0,0.657999 0.1114271,0.716488 0.9724809,0.526399 0.4457245,-0.08774 0.8711885,-0.190089 0.9623548,-0.233954 0.131696,-0.04386 0.1823419,0.07312 0.232997,0.482536 0.040502,0.307065 0.091129,0.731109 0.1215612,0.935821 l 0.050626,0.394801 -1.0130006,0.175468 c -0.7091077,0.131603 -1.0231355,0.248577 -1.0231355,0.380179 0,0.672624 0.2431227,2.398045 0.3444236,2.398045 0.1114261,0 3.0896575,-0.731109 4.0621474,-1.008932 0.2735081,-0.07312 0.5064959,-0.131602 0.5166306,-0.116982 0,0.01463 0.081003,0.5264 0.1722069,1.125908 0.091223,0.599513 1.2763931,8.363925 2.643944,17.254257 1.357423,8.89032 2.50212,16.39153 2.54264,16.68399 l 0.07088,0.51176 -1.205469,0.33632 c -0.658451,0.17546 -2.076665,0.55563 -3.1605728,0.83347 -1.0839164,0.26319 -1.9854909,0.5264 -2.0158859,0.55563 -0.020251,0.0438 -0.010126,0.43867 0.030377,0.89196 0.081003,0.93584 0.020251,0.90658 1.2459887,0.57027 0.7091071,-0.19009 0.8711888,-0.19009 0.9421042,-0.0292 0.1013011,0.23395 0.2329877,1.41836 0.172207,1.52072 -0.030376,0.0291 -0.4963703,0.19009 -1.0332611,0.33631 -0.5470255,0.16083 -1.0028755,0.30705 -1.0231358,0.3363 -0.030377,0.0438 0.1519469,1.91551 0.1924673,1.98862 0.020251,0.0146 1.0028755,-0.2047 2.188093,-0.48252 17.1299064,-4.09426 31.9704284,-12.7945 46.6589944,-27.37288 4.497741,-4.45978 7.121426,-7.340363 15.640794,-17.151889 9.613413,-11.06904 12.206706,-13.861884 16.765226,-18.043852 9.886925,-9.095034 20.422179,-14.753848 34.310479,-18.424028 2.35018,-0.628754 6.08815,-1.476846 8.21546,-1.857017 l 0.99275,-0.190092 -0.0506,-0.511789 c -0.0305,-0.292436 -0.11143,-1.15515 -0.17222,-1.915507 -0.25324,-2.982936 -0.36467,-3.874895 -0.45585,-3.860273 -0.0506,0.01465 -0.31402,0.05846 -0.59767,0.116923 l -0.50649,0.08777 -1.61069,-17.883011 c -0.88131,-9.826146 -1.61067,-17.9707303 -1.62081,-18.0877104 0,-0.1169251 0.0608,-0.2193376 0.14183,-0.2485826 0.081,-0.014649 0.37481,-0.073112 0.64832,-0.1169252 l 0.48624,-0.1024127 -0.0708,-0.9650581 c -0.0911,-1.2867668 -0.12157,-1.3452569 -0.44572,-1.2575218 -0.27351,0.087762 -0.28364,0.058463 -0.38494,-0.8042241 -0.1013,-0.935813 -0.0608,-1.0381706 0.37481,-1.0381706 0.15196,0 0.17221,-0.087762 0.13168,-0.6287676 -0.0608,-0.83345547 -0.10129,-0.97968052 -0.25324,-0.96505803 -0.0709,0 -1.33717,0.26319142 -2.81615,0.58488653 z m 1.25612,1.8862758 c 0.0305,0.2339464 0.0911,0.6287541 0.12156,0.877323 0.0608,0.4825426 0.14182,0.4386751 -1.26625,0.804224 -1.23586,0.3216952 -1.18522,0.3509402 -1.29664,-0.6433764 l -0.0911,-0.8773367 0.70911,-0.1754564 c 0.39508,-0.087762 0.90157,-0.2193376 1.12443,-0.2778276 0.62806,-0.17547 0.6382,-0.17547 0.69897,0.2924501 z m -3.74811,0.8334693 c 0.0203,0.1462112 0.0709,0.5263963 0.11144,0.8627004 l 0.0608,0.5995226 -1.17508,0.3363039 c -0.96237,0.2778277 -1.20548,0.3070727 -1.26626,0.1462252 -0.0912,-0.2193376 -0.24312,-1.4622233 -0.18235,-1.5353359 0.0506,-0.073112 1.91458,-0.6287539 2.17796,-0.6433764 0.13169,-0.014649 0.24313,0.087762 0.27351,0.2339602 z m -3.62656,1.6961694 c 0.0608,0.4532977 0.10131,0.8334691 0.081,0.8334691 -0.0101,0 -0.55716,0.1608476 -1.2156,0.3655626 -0.64832,0.2047152 -1.19534,0.3509265 -1.20547,0.336304 -0.0709,-0.1169251 -0.25326,-1.6376796 -0.2026,-1.6961695 0.081,-0.1169252 2.09691,-0.7457341 2.27925,-0.7164892 0.0913,0.014649 0.18235,0.3363041 0.26338,0.877323 z m -3.72784,0.9943167 c 0.0709,0.4094302 0.12156,0.7896016 0.12156,0.8627141 0,0.1462251 -2.30968,0.9504492 -2.39073,0.8334691 -0.0608,-0.087761 -0.34441,-1.6084482 -0.31401,-1.6523157 0.0506,-0.058463 2.1577,-0.7749791 2.30965,-0.7749791 0.11144,-0.014649 0.19248,0.2193377 0.27353,0.7311116 z m -3.6671,1.3744882 c 0.081,0.4532976 0.14182,0.8480916 0.12155,0.8627141 -0.0608,0.058463 -2.18808,0.8188467 -2.29951,0.8188467 -0.1013,0 -0.47612,-1.5645807 -0.39507,-1.6815608 0.0506,-0.073112 2.35017,-0.9065816 2.39068,-0.8627142 0.0202,0.014649 0.10131,0.4094302 0.18235,0.8627142 z m 9.9072,1.6376932 c 0.17221,1.6669383 1.06364,9.9869923 2.8364,26.3639123 0.74963,6.960188 0.82054,7.837525 0.67871,7.925261 -0.0912,0.05846 -0.84078,0.277814 -1.68159,0.482529 -4.71046,1.199018 -10.77837,3.333877 -15.4078,5.454098 l -0.92184,0.424039 -0.16208,-0.818847 c -0.0911,-0.453284 -1.03325,-5.264005 -2.09691,-10.688859 -4.02163,-20.456517 -4.54839,-23.17626 -4.50787,-23.220129 0.0203,-0.02916 0.83067,-0.424037 1.79301,-0.862714 5.25749,-2.398035 11.10252,-4.518271 16.54239,-6.024362 1.17507,-0.3216814 2.21847,-0.6141315 2.32991,-0.6433766 0.11142,-0.043812 0.25324,-0.073112 0.31402,-0.087762 0.0608,-0.014649 0.18234,0.716489 0.28365,1.6961832 z m -13.6148,-0.5117741 c 0.0608,0.3509265 0.13168,0.7311117 0.16207,0.8627144 0.0305,0.175456 -0.19246,0.321681 -1.10416,0.687244 -0.63819,0.263191 -1.18523,0.467906 -1.21561,0.467906 -0.0708,0 -0.41533,-1.6084479 -0.35456,-1.6815604 0.0506,-0.073112 2.12731,-0.9211904 2.27926,-0.935813 0.0708,-0.014649 0.17223,0.2631915 0.233,0.599509 z m -3.6063,1.6669384 c 0.10131,0.453284 0.16209,0.848092 0.14184,0.877323 -0.0608,0.07311 -2.34005,1.082051 -2.37045,1.038184 -0.081,-0.160848 -0.35455,-1.608448 -0.30389,-1.666939 0.0507,-0.07311 2.14757,-1.03817 2.29952,-1.067415 0.0305,0 0.13168,0.365549 0.23298,0.818847 z m -3.64681,1.476846 c 0.0912,0.380171 0.16208,0.760356 0.16208,0.862713 0,0.219325 -2.218478,1.301376 -2.329909,1.140529 -0.08104,-0.146226 -0.425463,-1.549959 -0.374812,-1.593826 0.05065,-0.05846 2.147571,-1.052793 2.269131,-1.082051 0.0607,0 0.18234,0.292449 0.27351,0.672635 z m -3.555646,1.886261 c 0.101301,0.453299 0.172213,0.833469 0.151952,0.862714 -0.03039,0.04381 -2.086789,1.082053 -2.248872,1.140542 -0.09117,0.0293 -0.486241,-1.359878 -0.435591,-1.564579 0.03039,-0.116924 2.026008,-1.228278 2.248873,-1.2429 0.06077,-0.01464 0.18234,0.350939 0.283638,0.804223 z m -3.565775,1.886277 c 0.101298,0.394794 0.151949,0.760356 0.11143,0.818846 -0.04053,0.05846 -0.547023,0.36555 -1.134565,0.701867 -0.790146,0.438661 -1.073785,0.541019 -1.134565,0.409416 -0.131691,-0.292436 -0.415333,-1.418355 -0.374813,-1.476845 0.111431,-0.160848 2.086788,-1.242886 2.208353,-1.213641 0.0709,0.01464 0.222859,0.350927 0.32416,0.760357 z m -3.484737,2.061732 0.21273,0.745734 -1.164954,0.701866 c -0.638194,0.380185 -1.164959,0.672621 -1.185216,0.643376 -0.05066,-0.131574 -0.364682,-1.242884 -0.384944,-1.432978 -0.03039,-0.219323 2.147572,-1.666937 2.259004,-1.50609 0.03039,0.05846 0.151949,0.438675 0.26338,0.848092 z m 5.095413,7.808281 c 0.739494,3.012181 1.651198,6.770097 2.026011,8.334678 0.38494,1.56458 1.144695,4.722987 1.701848,7.018678 2.532506,10.39641 2.856676,11.75629 2.826276,11.785535 -0.0101,0.0293 -0.72935,0.467906 -1.59041,0.97968 -3.920331,2.368805 -7.881179,5.249398 -11.467215,8.378559 -0.790144,0.687244 -1.468857,1.257508 -1.509376,1.27213 -0.05065,0.01465 -2.816154,-7.047924 -6.14894,-15.704296 l -6.067898,-15.748151 2.03614,-1.681561 c 4.923202,-4.050366 9.633676,-7.384228 14.749349,-10.425669 l 1.772758,-1.052793 0.172211,0.687245 c 0.09117,0.365548 0.759751,3.143783 1.499246,6.155965 z m -8.620669,-5.761172 c 0.131689,0.438677 0.222859,0.818847 0.202601,0.848092 -0.09117,0.116922 -2.117183,1.403733 -2.198222,1.403733 -0.111429,0 -0.557153,-1.476832 -0.476111,-1.579203 0.05065,-0.08777 2.096922,-1.476832 2.188092,-1.476832 0.03039,-0.01464 0.16208,0.350926 0.28364,0.80421 z m -3.413827,2.310315 0.273511,0.789602 -1.134565,0.789601 -1.134565,0.804225 -0.283642,-0.789602 c -0.16208,-0.438661 -0.273511,-0.83347 -0.253249,-0.862715 0.06077,-0.07312 2.14757,-1.506089 2.208347,-1.520712 0.0304,0 0.182342,0.35094 0.324163,0.789601 z m -3.413826,2.427295 c 0.141821,0.394808 0.253252,0.745734 0.253252,0.789601 0,0.07312 -2.147569,1.710807 -2.177961,1.652316 -0.35455,-0.818847 -0.557148,-1.476845 -0.496372,-1.56458 0.111432,-0.160848 1.995619,-1.608448 2.086789,-1.608448 0.04053,0 0.192472,0.321695 0.334292,0.731111 z m -3.089662,3.290009 c 0,0.17547 -2.026013,1.842408 -2.12731,1.754674 -0.111433,-0.102408 -0.638193,-1.403734 -0.587544,-1.462224 0.01014,-0.01464 0.506501,-0.438675 1.094044,-0.921204 l 1.063656,-0.877336 0.273511,0.67262 c 0.151953,0.380186 0.283643,0.745735 0.283643,0.83347 z m -3.504996,2.032487 c 0.14182,0.365563 0.263381,0.687245 0.263381,0.71649 0,0.160847 -2.026012,1.871652 -2.12731,1.783918 -0.172214,-0.160849 -0.648324,-1.4476 -0.557154,-1.491468 0.06077,-0.0293 0.536891,-0.438661 1.063655,-0.906582 0.526764,-0.467907 0.992746,-0.833469 1.033266,-0.804225 0.03039,0.0293 0.182342,0.350941 0.324162,0.701867 z m -3.251746,2.792858 c 0.151952,0.365548 0.273511,0.731112 0.273511,0.789601 0,0.131575 -1.874059,1.915507 -2.00575,1.915507 -0.1013,-0.01464 -0.668583,-1.257508 -0.638193,-1.403733 0.03039,-0.131575 1.92471,-1.944752 2.036139,-1.959375 0.0304,0 0.172213,0.292438 0.334293,0.658 z m -3.109926,3.114538 0.31403,0.701868 -0.31403,0.307058 c -0.17221,0.160848 -0.638193,0.64339 -1.033263,1.038185 l -0.729364,0.745733 -0.354551,-0.760356 -0.344424,-0.774979 0.972486,-0.965071 c 0.536892,-0.54102 1.023136,-0.979681 1.073785,-0.979681 0.06077,-0.01464 0.243121,0.307058 0.415331,0.687243 z m 8.934703,16.610865 c 3.636687,8.305434 6.62505,15.207133 6.655439,15.324113 0.04053,0.146225 -0.37481,0.657999 -1.337166,1.652315 -2.775631,2.88058 -5.460095,5.848893 -10.464337,11.610064 -1.478985,1.69618 -2.704722,3.085294 -2.735113,3.085294 -0.06077,0 -15.731965,-28.030851 -15.782611,-28.220929 -0.06075,-0.23396 7.729226,-9.065802 11.558383,-13.086924 1.793018,-1.871639 5.368924,-5.468706 5.449963,-5.483328 0.0304,0 3.028885,6.799341 6.655442,15.119395 z m -12.034498,-13.437835 0.303905,0.643376 -0.729364,0.789601 c -0.921836,0.965058 -1.296647,1.330621 -1.327036,1.257509 -0.02027,-0.0293 -0.182341,-0.336318 -0.364682,-0.687245 -0.202603,-0.365562 -0.303904,-0.687243 -0.253253,-0.760356 0.273511,-0.394808 1.924709,-2.017864 1.985491,-1.959374 0.04053,0.04381 0.212729,0.365548 0.384939,0.716489 z m -3.059273,3.202273 0.32416,0.658 -1.002874,1.09666 -1.013005,1.111296 -0.37481,-0.745733 c -0.354548,-0.701867 -0.364682,-0.745734 -0.182342,-0.935827 0.111427,-0.102408 0.557152,-0.584901 1.002876,-1.06743 0.445725,-0.482529 0.830665,-0.862714 0.861054,-0.833469 0.03039,0.0293 0.2026,0.35094 0.384941,0.716503 z m -3.03902,3.231506 c 0.172218,0.35094 0.324164,0.672622 0.324164,0.716489 0,0.102408 -1.813274,2.134844 -1.914575,2.134844 -0.05063,0 -0.253246,-0.292435 -0.45585,-0.643376 l -0.354557,-0.643377 0.982615,-1.111283 c 0.536889,-0.614145 1.002875,-1.111296 1.033269,-1.111296 0.03038,0.01464 0.202602,0.307072 0.384934,0.657999 z m 73.209865,0.0293 c 0.0405,0.394807 0.0709,0.804224 0.081,0.921203 0.0203,0.204716 -0.14182,0.263206 -1.96523,0.643378 l -0.47611,0.102408 -0.10132,-0.848092 c -0.0506,-0.467906 -0.081,-0.877336 -0.0608,-0.906581 0.0305,-0.04381 0.55715,-0.175456 1.18522,-0.321682 0.61794,-0.131575 1.16494,-0.248582 1.20547,-0.263204 0.0405,0 0.1013,0.29245 0.1317,0.672621 z m -3.71773,1.023561 c 0.0608,0.467907 0.0913,0.862716 0.0708,0.89196 -0.0202,0.0293 -2.259,0.614131 -2.39069,0.614131 -0.0305,0 -0.11143,-0.394794 -0.16208,-0.877336 l -0.10131,-0.877337 0.31404,-0.07312 c 1.10417,-0.30706 1.85379,-0.482529 2.00574,-0.497151 0.12157,-0.01465 0.18234,0.190091 0.26338,0.818845 z m -3.78864,0.438676 c 0.0305,0.233946 0.081,0.643376 0.11142,0.921191 l 0.0608,0.526409 -1.18522,0.321683 c -0.64832,0.175469 -1.21559,0.292449 -1.24599,0.248581 -0.0305,-0.05846 -0.11143,-0.453297 -0.16208,-0.877337 l -0.11143,-0.789602 0.50651,-0.160846 c 0.28363,-0.0731 0.81041,-0.233946 1.17508,-0.350927 0.36468,-0.116923 0.68883,-0.204714 0.72936,-0.219337 0.0305,-0.01464 0.0913,0.160847 0.12157,0.380185 z m -3.63667,1.666924 0.12156,0.818847 -1.17509,0.394807 c -0.64832,0.204702 -1.20548,0.380172 -1.23587,0.380172 -0.081,0 -0.32416,-1.608449 -0.26337,-1.710806 0.0911,-0.116922 2.03612,-0.760357 2.24886,-0.731112 0.15195,0.0293 0.22284,0.204716 0.30391,0.848092 z M 54.843278,49.65729 c 0.08099,0.204715 -0.09113,0.453297 -0.881315,1.374502 l -0.97248,1.125905 -0.192477,-0.350926 c -0.101301,-0.175468 -0.273508,-0.511786 -0.384935,-0.716487 l -0.192476,-0.380185 0.982614,-1.125906 0.972483,-1.12592 0.283642,0.482529 c 0.162083,0.263206 0.334298,0.584888 0.384944,0.71649 z m 61.074072,0.365563 c 0.0708,0.453284 0.0911,0.862714 0.0405,0.935826 -0.0911,0.116923 -2.26914,0.921205 -2.30966,0.848092 -0.0202,-0.0293 -0.10131,-0.40943 -0.18235,-0.862714 l -0.14182,-0.83347 1.12444,-0.438674 c 0.61795,-0.233947 1.1751,-0.438662 1.23589,-0.453285 0.0608,-0.01464 0.16207,0.350941 0.23299,0.804225 z m -3.73801,0.994317 c 0.0506,0.190078 0.12155,0.570263 0.15195,0.848091 l 0.0708,0.497152 -1.10418,0.467907 c -0.59766,0.263203 -1.14469,0.467919 -1.19534,0.467919 -0.0608,0 -0.1722,-0.365562 -0.26337,-0.818847 -0.19247,-0.935826 -0.31404,-0.789602 1.07377,-1.403733 1.12444,-0.482543 1.1447,-0.482543 1.26625,-0.05846 z m -60.537156,1.608434 0.364683,0.64339 -0.972489,1.140528 -0.982606,1.140542 -0.384945,-0.657999 c -0.212736,-0.35094 -0.374819,-0.687257 -0.364684,-0.731112 0.04051,-0.17547 1.74237,-2.14948 1.853797,-2.164103 0.07088,-0.01464 0.283643,0.277826 0.486244,0.628754 z m 56.981506,0.380185 c 0.0709,0.394807 0.12156,0.774979 0.12156,0.833469 -0.0101,0.08777 -0.98262,0.614131 -2.13743,1.140542 -0.12156,0.05846 -0.20262,-0.131575 -0.35455,-0.731125 -0.11144,-0.497152 -0.15195,-0.862701 -0.0911,-0.935813 0.11144,-0.160847 1.94497,-1.023562 2.17797,-1.038186 0.10129,0 0.19247,0.233961 0.28364,0.731113 z m -3.59617,1.710806 c 0.0912,0.394794 0.17221,0.760357 0.18235,0.818846 0.0202,0.07312 -0.48624,0.409417 -1.1143,0.760357 -1.2764,0.701867 -1.18523,0.731112 -1.48911,-0.497166 l -0.13171,-0.570264 1.02313,-0.584886 c 0.56729,-0.321695 1.11431,-0.599508 1.20549,-0.599508 0.11143,-0.01464 0.21272,0.204701 0.32415,0.672621 z M 48.643691,55.95948 c 0.182342,0.336317 0.324164,0.657998 0.324164,0.716489 0,0.05846 -0.425464,0.599521 -0.95223,1.213654 l -0.962354,1.111282 -0.37481,-0.745734 c -0.202602,-0.394793 -0.354548,-0.760355 -0.334288,-0.774979 0.192467,-0.277814 1.86392,-2.134844 1.914575,-2.134844 0.03038,0 0.202601,0.277827 0.384943,0.614132 z m 52.878849,0.789601 c 0.13168,0.453297 0.22286,0.833469 0.2026,0.848091 -0.0202,0.01465 -0.52676,0.336318 -1.1447,0.716489 -0.820532,0.497152 -1.124434,0.628755 -1.185216,0.497152 -0.141817,-0.307059 -0.415329,-1.418355 -0.374808,-1.491469 0.05065,-0.0731 2.137434,-1.374487 2.218474,-1.389109 0.0303,0 0.15195,0.365562 0.28365,0.818846 z m -3.46448,2.237202 0.23299,0.760357 -1.063655,0.73111 c -0.587542,0.394809 -1.104175,0.71649 -1.144694,0.71649 -0.04053,0 -0.192473,-0.350926 -0.334293,-0.774979 l -0.263382,-0.760352 1.073788,-0.760358 c 0.597669,-0.409417 1.124433,-0.731112 1.175085,-0.716489 0.05065,0.01464 0.19247,0.380185 0.324161,0.804224 z m -52.027925,1.06743 c 0,0.116923 -1.813274,2.164089 -1.92471,2.164089 -0.04051,0 -0.243115,-0.292449 -0.445717,-0.643377 l -0.364683,-0.657999 0.982616,-1.111296 0.992741,-1.125905 0.37481,0.643376 c 0.212736,0.336305 0.384943,0.672621 0.384943,0.731112 z m 48.624228,1.27213 c 0.131689,0.40943 0.222859,0.774979 0.192471,0.789601 -0.151952,0.190093 -2.01588,1.564581 -2.107051,1.564581 -0.14182,0 -0.678713,-1.50609 -0.55715,-1.564581 0.05065,-0.02916 0.547023,-0.409416 1.104172,-0.833469 0.557154,-0.438661 1.033266,-0.760355 1.063657,-0.745733 0.03039,0.0293 0.17221,0.380184 0.303901,0.789601 z M 54.620417,76.167427 c 4.082407,7.910631 7.435454,14.49064 7.465847,14.607622 0.04053,0.146221 -0.719234,1.052802 -2.502126,2.982935 -4.416696,4.781478 -8.367418,8.670996 -12.277611,12.063356 -1.641066,1.41836 -1.833543,1.54996 -1.934844,1.316 -0.35455,-0.74573 -12.611909,-30.57512 -12.611909,-30.692099 0,-0.05846 0.587546,-0.614132 1.296653,-1.213642 2.856671,-2.427294 6.898559,-6.536136 11.001227,-11.142143 1.114302,-1.272144 2.066531,-2.310315 2.096917,-2.310315 0.03038,0 3.393571,6.477647 7.465846,14.388286 z M 42.677094,62.68571 c 0.172206,0.336318 0.314029,0.657998 0.314029,0.716503 0,0.08777 -1.874055,2.178711 -1.955096,2.178711 -0.08099,0 -0.688848,-1.330635 -0.658453,-1.447614 0.04051,-0.160834 1.813275,-2.061733 1.914576,-2.061733 0.04051,0 0.212727,0.277828 0.384944,0.614133 z m 48.664744,1.316011 0.27351,0.672622 -1.043392,0.862714 c -0.567284,0.467907 -1.073788,0.848092 -1.114307,0.848092 -0.04053,0 -0.212731,-0.336318 -0.374812,-0.745735 l -0.293773,-0.731111 1.083917,-0.891959 c 0.597673,-0.497165 1.114305,-0.862715 1.144695,-0.804225 0.03039,0.05846 0.182341,0.409417 0.324162,0.789602 z m -51.713892,1.930116 c 0.182342,0.350941 0.324165,0.687243 0.324165,0.731111 0,0.116922 -1.884191,1.988634 -2.005752,1.988634 -0.09113,0 -0.678712,-1.155165 -0.678712,-1.345256 0,-0.102409 1.88419,-2.017866 1.98549,-2.017866 0.03038,0 0.202601,0.292437 0.374809,0.643377 z m 48.664747,1.56458 c -0.04053,0.04381 -0.516633,0.482529 -1.063655,0.979695 l -0.982612,0.906581 -0.344423,-0.76037 c -0.192469,-0.424038 -0.334292,-0.789601 -0.324164,-0.789601 0,-0.01464 0.486246,-0.453284 1.073788,-0.994303 l 1.063655,-0.950449 0.324158,0.760355 c 0.172213,0.424054 0.293773,0.804225 0.253253,0.848092 z m -51.784799,1.506091 c 0.162081,0.365563 0.303903,0.687245 0.303903,0.745735 0,0.0731 -1.975356,1.973996 -2.066532,1.973996 -0.06076,0 -0.698972,-1.462222 -0.658452,-1.520712 0.141822,-0.175456 1.975355,-1.842395 2.036135,-1.842395 0.04051,0 0.212739,0.29245 0.384946,0.643376 z m 48.381103,0.687245 0.334291,0.672621 -1.043394,1.038185 -1.043394,1.03817 -0.314032,-0.658 c -0.18234,-0.350925 -0.324161,-0.716488 -0.324161,-0.789601 0,-0.160833 1.843669,-2.04711 1.965228,-2.003242 0.04053,0.02916 0.232992,0.336317 0.425462,0.701867 z m -51.582198,2.237202 c 0.141821,0.365563 0.263383,0.701866 0.263383,0.774979 0,0.116923 -1.955106,1.79854 -2.096928,1.79854 -0.121559,0 -0.67871,-1.520713 -0.577409,-1.56458 0.05063,-0.0293 0.506505,-0.40943 1.002876,-0.848092 0.506504,-0.438675 0.962353,-0.789602 1.03326,-0.804225 0.06076,0 0.232997,0.292451 0.374818,0.643378 z m 48.492533,0.906582 c 0.172213,0.365562 0.293774,0.687244 0.273511,0.701866 -0.01014,0.02916 -0.465979,0.511774 -1.002874,1.082052 l -0.972482,1.023547 -0.374813,-0.731111 c -0.364682,-0.687244 -0.374813,-0.745734 -0.192472,-0.921191 0.101301,-0.102407 0.547022,-0.5849 0.992744,-1.067429 0.445723,-0.467919 0.840795,-0.833469 0.881316,-0.804224 0.04053,0.0293 0.222859,0.35094 0.39507,0.71649 z m -51.724022,1.959374 0.253259,0.716504 -1.124439,0.818831 c -0.61793,0.453298 -1.134569,0.804225 -1.154831,0.77498 -0.01013,-0.01464 -0.141811,-0.394794 -0.293768,-0.804211 l -0.263382,-0.774993 1.083917,-0.789601 c 0.607805,-0.438662 1.124435,-0.760343 1.175081,-0.716489 0.04051,0.0293 0.182341,0.380185 0.324163,0.774979 z m 48.664747,1.257522 c 0.293774,0.555642 0.324163,0.687243 0.202603,0.848092 -0.303901,0.409415 -1.742368,1.988619 -1.813277,1.988619 -0.09118,0 -0.709105,-1.12592 -0.709105,-1.301376 0,-0.146224 1.793018,-2.207957 1.914578,-2.207957 0.0304,0 0.212732,0.30706 0.405201,0.672622 z m -52.108964,1.038184 c 0.111437,0.380172 0.212738,0.745719 0.232998,0.804211 0.03038,0.08777 -1.630941,1.286767 -2.086791,1.491481 -0.151957,0.0731 -0.232988,-0.07312 -0.415329,-0.716488 -0.131697,-0.453299 -0.222863,-0.833485 -0.202603,-0.862715 0.131687,-0.131575 2.086782,-1.389125 2.167822,-1.389125 0.06076,-0.01464 0.192477,0.292451 0.303903,0.672636 z m -3.423955,2.310301 c 0.111435,0.438676 0.182343,0.833475 0.141822,0.862717 -0.131688,0.116982 -2.147573,1.257514 -2.218479,1.257514 -0.09113,0 -0.435589,-1.301378 -0.415329,-1.535333 0.01013,-0.131603 1.92471,-1.345255 2.167823,-1.3745 0.06076,-0.01464 0.202602,0.35094 0.324163,0.789602 z m 52.544558,0.01464 c 0.21273,0.365562 0.364682,0.687246 0.354551,0.716489 -0.02024,0.01463 -0.465982,0.541025 -0.992745,1.155161 l -0.942092,1.11129 -0.374814,-0.672624 c -0.202601,-0.380178 -0.354549,-0.731114 -0.344422,-0.774979 0.0304,-0.102361 1.782888,-2.193336 1.853802,-2.193336 0.03039,-0.01464 0.23299,0.292451 0.44572,0.657999 z M 33.863952,95.89284 c 3.008625,8.83183 5.480351,16.11371 5.480351,16.17221 0,0.2047 -4.447091,3.12915 -7.24298,4.76685 -3.19097,1.87164 -7.009995,3.78716 -10.231349,5.1324 -1.053522,0.43867 -2.005752,0.83346 -2.096918,0.87734 -0.131696,0.0585 -0.212736,-0.16085 -0.425464,-1.14055 -0.506505,-2.45653 -6.645311,-33.44107 -6.645311,-33.57267 0,-0.08774 0.243122,-0.248577 0.536891,-0.365559 0.283644,-0.116982 1.28652,-0.5264 2.228614,-0.891955 3.920326,-1.579202 8.073651,-3.816407 12.024363,-6.492276 0.47611,-0.321692 0.871188,-0.570268 0.871188,-0.555646 0.01013,0 2.481862,7.238011 5.500615,16.069848 z m -14.192197,-14.534511 0.202603,0.877331 -1.195352,0.57027 -1.205469,0.58489 -0.192477,-0.84809 -0.202602,-0.848089 1.124437,-0.584894 c 0.628067,-0.321688 1.164957,-0.584889 1.205477,-0.599508 0.03038,0 0.151948,0.380177 0.263383,0.84809 z m 53.375217,1.930133 c 0.121564,0.219336 0.0304,0.365559 -0.780013,1.359871 -0.516631,0.614132 -0.962353,1.111291 -1.002876,1.111291 -0.04053,0 -0.232989,-0.292446 -0.44572,-0.643378 l -0.374814,-0.658001 0.982617,-1.155158 0.972486,-1.169782 0.26338,0.467914 c 0.131691,0.248577 0.314033,0.555643 0.38494,0.687243 z m -57.01191,-0.424051 c 0.07088,0.350931 0.141821,0.731113 0.172216,0.862712 0.04051,0.19009 -0.172216,0.336313 -1.13457,0.716491 -0.648318,0.248577 -1.205468,0.409423 -1.256124,0.336312 -0.081,-0.131602 -0.334289,-1.520714 -0.283644,-1.579202 0.05062,-0.08774 2.056407,-0.921202 2.218489,-0.935825 0.101301,-0.01463 0.202602,0.204711 0.283633,0.599512 z m -3.656944,1.418355 c 0.243123,1.125915 0.243123,1.111293 -1.013,1.535337 -0.628067,0.204714 -1.175082,0.380179 -1.205477,0.380179 -0.081,0 -0.3241643,-1.608446 -0.2633837,-1.696179 0.070878,-0.102361 1.9044497,-0.76036 2.1577067,-0.77498 0.162073,-0.01463 0.243113,0.116982 0.324154,0.555643 z m -3.6468085,1.43298 c 0.060753,0.453294 0.1012916,0.848094 0.081003,0.877336 -0.040502,0.07312 -2.0969174,0.628759 -2.2995195,0.628759 -0.1316866,0 -0.2026021,-0.219335 -0.2735081,-0.848093 -0.060753,-0.45329 -0.091222,-0.848091 -0.081003,-0.86271 0.030377,-0.04386 2.0462713,-0.599513 2.2387387,-0.614136 0.172207,-0.01463 0.2329877,0.116981 0.3342981,0.818844 z M 70.13965,86.812417 c 0.08104,0.204713 -0.06078,0.438667 -0.830665,1.345245 -0.51663,0.614135 -0.972481,1.09667 -1.013002,1.082048 -0.0304,-0.02926 -0.222864,-0.336313 -0.415333,-0.687247 l -0.354554,-0.643379 0.972486,-1.155156 0.972485,-1.169782 0.283644,0.497159 c 0.162077,0.2632 0.334287,0.599512 0.384939,0.731112 z m -3.180835,2.982935 c 0.324163,0.555647 0.354551,0.687247 0.232993,0.848096 -0.08104,0.10236 -0.516635,0.628753 -0.972488,1.155153 l -0.820532,0.97969 -0.405202,-0.701866 -0.415332,-0.701869 0.931967,-1.12591 c 0.516629,-0.614136 0.962352,-1.111293 1.002872,-1.111293 0.04053,-0.01463 0.232993,0.277823 0.445722,0.657999 z m -2.795894,3.7433 0.202603,0.380176 -0.972486,1.111291 c -0.536892,0.614136 -1.002875,1.082044 -1.043394,1.052801 -0.03039,-0.02925 -0.212731,-0.350934 -0.384944,-0.716489 l -0.334289,-0.658001 0.992744,-1.096672 0.982614,-1.11129 0.182341,0.321689 c 0.1013,0.175469 0.263382,0.497159 0.374811,0.716495 z m -3.160573,2.968311 c 0.17221,0.350936 0.324158,0.701871 0.324158,0.76036 -0.01014,0.05849 -0.44572,0.584889 -0.992742,1.169778 l -0.982614,1.038177 -0.334287,-0.672619 c -0.182342,-0.365558 -0.314039,-0.731113 -0.293778,-0.804225 0.03038,-0.131602 1.803149,-2.134848 1.89432,-2.134848 0.03039,0 0.202602,0.292445 0.384943,0.643377 z m -3.028882,3.304628 c 0.192468,0.394809 0.324163,0.745739 0.303894,0.774979 -0.151947,0.20471 -1.955097,1.98862 -2.005742,1.98862 -0.09122,-0.0146 -0.658452,-1.25751 -0.638192,-1.40372 0.02025,-0.11699 1.833533,-2.061745 1.94497,-2.090991 0.03037,0 0.202593,0.321688 0.39507,0.731112 z m -3.140313,3.026799 c 0.172207,0.3948 0.314028,0.76036 0.314028,0.80423 0,0.10236 -1.732243,1.81316 -1.955096,1.94476 -0.081,0.0439 -0.273517,-0.23396 -0.465985,-0.70187 -0.182343,-0.42405 -0.293768,-0.7896 -0.243122,-0.80422 0.04051,-0.0292 0.51663,-0.46791 1.043396,-0.9797 0.526764,-0.5264 0.97248,-0.95044 0.97248,-0.95044 0.01013,-0.0146 0.162083,0.30707 0.334299,0.68724 z m -3.140313,3.05606 c 0.232987,0.54102 0.283632,0.73111 0.182332,0.86271 -0.182332,0.23395 -2.015876,1.8424 -2.046262,1.78391 -0.222863,-0.40942 -0.567287,-1.47685 -0.496372,-1.5792 0.121553,-0.17547 1.894316,-1.74005 1.975358,-1.75467 0.04051,0 0.212727,0.30707 0.384944,0.68725 z m -3.25175,2.85133 0.314027,0.76036 -1.03326,0.84809 c -0.567286,0.46791 -1.073791,0.84808 -1.134562,0.84808 -0.131696,0 -0.688847,-1.52071 -0.587546,-1.57919 0.05063,-0.0146 0.51663,-0.3948 1.043396,-0.83347 0.526756,-0.42404 0.992741,-0.7896 1.033262,-0.7896 0.03037,-0.0146 0.202601,0.32169 0.364683,0.74573 z m -3.302395,2.64663 0.263384,0.77498 -1.114313,0.84809 c -0.607797,0.46791 -1.124428,0.83347 -1.134563,0.80422 -0.02025,-0.0292 -0.151956,-0.3948 -0.303903,-0.81884 l -0.263382,-0.76036 1.043395,-0.7896 c 0.567287,-0.43867 1.083918,-0.80422 1.134572,-0.81885 0.06075,0 0.232988,0.33631 0.37481,0.76036 z M 41.735,113.79046 c 0.1013,0.3948 0.192467,0.74573 0.192467,0.81884 0,0.0877 -2.026012,1.54997 -2.188085,1.56458 -0.06076,0 -0.5369,-1.60845 -0.486245,-1.65231 0.162082,-0.16085 2.086794,-1.41836 2.177958,-1.41836 0.06076,0 0.202603,0.30707 0.303905,0.68725 z m -3.423957,2.32493 c 0.131686,0.4533 0.222862,0.8481 0.202601,0.86271 -0.04051,0.0439 -2.218477,1.38912 -2.259007,1.38912 -0.09113,0 -0.476111,-1.66693 -0.395071,-1.7108 0.05063,-0.0292 0.547027,-0.33632 1.104177,-0.68724 0.557152,-0.36556 1.033262,-0.65801 1.063657,-0.65801 0.03038,-0.0146 0.151947,0.35093 0.283643,0.80422 z m -3.515132,2.06174 c 0.111436,0.36556 0.182342,0.76036 0.151955,0.84809 -0.02024,0.0877 -0.465983,0.40943 -0.992749,0.70187 -0.51663,0.27782 -1.013001,0.55563 -1.104167,0.61412 -0.121561,0.0585 -0.212737,-0.10241 -0.384944,-0.76035 -0.121561,-0.4679 -0.182341,-0.8627 -0.141822,-0.89196 1.418205,-0.83345 2.026012,-1.16977 2.137439,-1.1844 0.07088,-0.0146 0.222862,0.29245 0.334288,0.67263 z m -3.515123,2.03249 c 0.1013,0.4533 0.162082,0.83347 0.141822,0.8627 -0.03038,0.0438 -2.309653,1.21366 -2.309653,1.18442 0,-0.0147 -0.09113,-0.38018 -0.202604,-0.80423 -0.111426,-0.43866 -0.172207,-0.83346 -0.141811,-0.87733 0.06075,-0.10241 2.076657,-1.15516 2.228603,-1.16977 0.06076,-0.0147 0.182341,0.35091 0.283643,0.80421 z m -3.636683,1.53535 c 0.293768,1.22826 0.384934,1.0674 -0.901575,1.65232 -0.638192,0.29243 -1.185218,0.52639 -1.215612,0.52639 -0.06075,0 -0.405195,-1.60845 -0.344415,-1.66694 0.081,-0.11696 2.167825,-1.08206 2.248866,-1.05282 0.05063,0.0147 0.151957,0.26321 0.212736,0.54105 z m -3.555652,1.82777 c 0.101301,0.4533 0.151956,0.8481 0.121562,0.89196 -0.06076,0.0877 -2.319781,1.06742 -2.350167,1.02356 -0.07088,-0.11698 -0.334298,-1.6377 -0.283642,-1.69619 0.0405,-0.0731 2.096918,-0.99432 2.279259,-1.02356 0.03038,-0.0147 0.131687,0.35094 0.232988,0.80423 z m -3.636684,1.53532 c 0.081,0.43869 0.111426,0.83348 0.07088,0.87734 -0.121561,0.16086 -2.157698,0.89197 -2.289385,0.81885 -0.101301,-0.0585 -0.415339,-1.56458 -0.344423,-1.63769 0.07088,-0.0585 2.3603,-0.90658 2.390695,-0.87733 0.02025,0.0292 0.101292,0.39481 0.172207,0.81883 z m -3.697465,1.18442 c 0.06075,0.35093 0.131688,0.73111 0.162082,0.86271 0.03038,0.17547 -0.182342,0.30707 -1.114312,0.61414 -0.628066,0.21932 -1.195342,0.3948 -1.245997,0.3948 -0.101301,0 -0.384934,-1.57921 -0.314028,-1.68157 0.05062,-0.0877 2.00575,-0.77496 2.228613,-0.78958 0.121561,-0.0147 0.202602,0.16083 0.283642,0.5995 z m -3.656952,1.3891 c 0.06075,0.45329 0.081,0.87734 0.04051,0.93584 -0.151947,0.17547 -2.279259,0.74573 -2.3603,0.62875 -0.0405,-0.0731 -0.121561,-0.46792 -0.172207,-0.87734 l -0.101301,-0.76035 1.124436,-0.36557 c 0.617931,-0.20469 1.175083,-0.38016 1.235863,-0.38016 0.06075,-0.0146 0.162083,0.36556 0.232989,0.81883 z"
       id="path167"
       style="fill:#225500;stroke:none;stroke-width:0.0121706" />
  </g>
</svg>
